<?xml version="1.0" encoding="iso-8859-1"?>
<!-- Uploaded to: SVG Repo, www.svgrepo.com, Generator: SVG Repo Mixer Tools -->
<svg fill="#000000" height="800px" width="800px" version="1.1" id="Layer_1" xmlns="http://www.w3.org/2000/svg" xmlns:xlink="http://www.w3.org/1999/xlink" 
	 viewBox="0 0 480.002 480.002" xml:space="preserve">
<g>
	<g>
		<path d="M473.677,144.221L279.038,67.256c-2.35-0.929-4.966-0.935-7.32-0.014L85.914,139.911
			c-3.849,1.506-6.375,5.224-6.357,9.355c0.018,4.133,2.575,7.829,6.437,9.302l48.14,18.359L3.763,280.957
			c-2.591,2.067-3.989,5.285-3.733,8.59c0.256,3.305,2.134,6.268,5.013,7.911l71.519,40.82l-31.823,60.513
			c-2.571,4.888-0.692,10.935,4.196,13.505c1.485,0.781,3.077,1.151,4.647,1.151c3.595,0,7.069-1.944,8.859-5.348l31.502-59.901
			l75.949,43.35c1.533,0.875,3.244,1.315,4.958,1.315c1.507,0,3.018-0.341,4.412-1.025c2.977-1.464,5.035-4.31,5.492-7.596
			l11.116-79.856l78.767,31.274c0.214,0.085,0.433,0.153,0.651,0.224c0.063,0.02,0.124,0.045,0.188,0.064
			c0.406,0.121,0.817,0.21,1.231,0.278c0.112,0.018,0.225,0.033,0.338,0.048c0.395,0.051,0.79,0.084,1.186,0.088
			c0.033,0.001,0.066,0.008,0.099,0.008c0.447,0,0.896-0.041,1.346-0.104c0.076-0.01,0.151-0.02,0.227-0.031
			c0.435-0.07,0.869-0.164,1.3-0.294c0.053-0.016,0.104-0.037,0.157-0.054c0.229-0.073,0.457-0.146,0.683-0.236l62.798-25.139
			c0.039,0.162,0.075,0.326,0.123,0.485l-15.409,70.34c-0.77,3.515,0.408,7.171,3.083,9.576c1.863,1.676,4.254,2.563,6.686,2.563
			c1.06,0,2.128-0.168,3.164-0.514l52.311-17.451c2.985-0.996,5.328-3.34,6.323-6.326c0.995-2.985,0.526-6.266-1.266-8.854
			l-35.37-51.078c0.03-0.274,0.055-0.55,0.063-0.83c0.027-1.049,0.071-3.067,0.099-5.841l33.557-13.434
			c3.795-1.52,6.284-5.196,6.284-9.284v-92.218l68.89-24.713c3.918-1.406,6.555-5.091,6.622-9.253
			C480.066,149.52,477.548,145.753,473.677,144.221z M166.98,366.858L27.76,287.395l169.059-134.901L166.98,366.858z
			 M268.325,311.637l-69.619-27.643l10.891-78.24l58.728,22.426V311.637z M288.326,311.591v-82.272l47.174-16.924
			c6.557,19.364,8.666,52.964,9.082,76.676L288.326,311.591z M375.823,360.758l-22.965,7.661l6.794-31.014L375.823,360.758z
			 M384.487,273.096l-20.054,8.028c-0.659-22.632-2.966-54.071-10.209-75.446l30.263-10.856V273.096z M344.873,187.784
			c-21.162-26.574-72.395-45.685-74.664-46.52c-5.18-1.912-10.927,0.741-12.838,5.922c-1.912,5.18,0.739,10.93,5.919,12.843
			c12.566,4.642,44.601,18.858,61.245,35.052l-44.767,16.059l-67.34-25.714l7.657-55.008c0.564-4.054-1.398-8.042-4.955-10.068
			c-3.556-2.024-7.988-1.679-11.187,0.873l-51.659,41.221l-34.971-13.336l158.029-61.807l166.313,65.766L344.873,187.784z"/>
	</g>
</g>
</svg>